<?xml version="1.0" encoding="utf-8"?>
<!-- Generator: Adobe Illustrator 30.4.0, SVG Export Plug-In . SVG Version: 9.03 Build 0)  -->
<svg version="1.1" xmlns="http://www.w3.org/2000/svg" xmlns:xlink="http://www.w3.org/1999/xlink" x="0px" y="0px"
	 viewBox="0 0 1024 1024" style="enable-background:new 0 0 1024 1024;" xml:space="preserve">
<g>
</g>
<g id="_x33___x2013__Layer">
	<path style="fill:#FF5A54;" d="M354.8247986,777.4215088l-76.1148682-71.0256958
		c-6.9111023-6.5402832-9.5258484-14.4279175-8.14151-23.9510498c1.5540161-12.6520386,6.0001221-24.5420532,9.1939087-37.7556763
		l-132.2571259-7.0474243c-5.4858551-1.5822144-8.653183-5.152832-10.364151-9.3430176
		c-2.1971893-5.1800537-1.5124512-10.3455811,1.4189301-14.9729614l79.7191315-96.0984497
		c13.8497162-15.5784607,29.1956787-28.5917053,48.4115601-36.7232666
		c19.3600159-8.6772766,39.6655579-13.2192993,60.842865-14.7208557l38.0996704-0.8831787l16.335907-24.3424683
		c39.7715759-59.5216064,89.8300781-112.1588135,148.1538696-153.5723572
		c72.4528809-51.5544281,156.9761353-79.5300751,245.7145386-81.7873993
		c8.05896,1.5536346,13.6591797,7.0302124,13.8931885,15.5005341c3.6933594,43.7532654-0.565979,87.594696-11.5915527,130.1385498
		c-14.1208496,57.8173828-38.6061401,111.5480957-72.0821533,160.7892761
		c-37.9589844,56.6496887-84.6567383,107.5787659-137.2376099,150.5798645
		c4.3962402,23.1798706,7.1095581,45.8847046,4.4769287,68.703064
		c-3.3080444,33.1154785-15.0740356,64.2684937-36.3389282,89.8113403l-79.931488,89.9257812
		c-4.471283,4.6067505-9.8849792,6.3826904-16.2508545,4.9140015c-4.8670349-1.5151367-9.5545044-5.3557739-10.8698425-11.3720093
		l-21.0742493-134.1521606c-10.3936462,5.6237183-20.8183289,10.1212769-31.7308044,14.4033813
		C368.8162842,786.4326172,360.7579041,784.0628662,354.8247986,777.4215088z M177.7418823,611.12146l113.9879456,5.8338623
		c17.1600647-41.3999023,35.6715698-80.8853149,56.7687683-121.7655945
		c-31.7668152-3.7224731-62.9643555,4.9191895-88.8543091,21.4320374
		c-11.4892426,8.9672241-20.6335297,19.118042-29.4491272,30.5109863
		C212.5819092,568.2064819,194.7941742,588.5302124,177.7418823,611.12146z M454.0725098,871.2821655l65.2422485-73.5859375
		c10.3925171-13.020874,16.6673584-27.3580933,21.4476929-43.3995972
		c6.1552124-22.7739258,6.9255981-46.8410034,1.9925537-70.9478149
		c-35.5527649,27.0349731-70.5461121,50.9937134-108.4893799,71.8776245l12.402771,76.6890869
		C448.7243652,845.2616577,450.5001526,857.9973755,454.0725098,871.2821655z"/>
</g>
</svg>
