<?xml version="1.0" encoding="utf-8"?>
<!-- Generator: Adobe Illustrator 30.4.0, SVG Export Plug-In . SVG Version: 9.03 Build 0)  -->
<svg version="1.1" xmlns="http://www.w3.org/2000/svg" xmlns:xlink="http://www.w3.org/1999/xlink" x="0px" y="0px"
	 viewBox="0 0 1024 1024" style="enable-background:new 0 0 1024 1024;" xml:space="preserve">
<g>
</g>
<g id="_x34___x2013__Layer">
	<circle style="fill:#FFFFFF;" cx="505.8161316" cy="471.5302734" r="12.8607445"/>
	<circle style="fill:#FFFFFF;" cx="550.0574341" cy="519.6763306" r="12.8607445"/>
	<path style="fill:#FFFFFF;" d="M576.7462769,559.7545776c12.0317383-5.366333,17.4840088-16.3466797,18.6712646-29.3006592
		c1.5227661-25.4734192,1.2835693-51.0906067,0.253479-76.5578613c-1.232666-11.6623535-6.6878052-20.5591125-17.1593628-25.4762268
		c-3.1877441-2.4648132-3.7179565-7.754364-1.1887817-10.8623657c17.8902588,0.6071777,29.7165527,14.5743103,33.2160645,31.6809387
		c3.9193115,29.9960632,3.5343018,61.1247864-1.0586548,90.9624023
		c-3.9373169,16.4651489-15.437561,29.2592163-32.6054688,29.7382812
		C575.2112427,566.9128418,575.6792603,563.4049072,576.7462769,559.7545776z"/>
	<path style="fill:#FFFFFF;" d="M478.7583923,559.7454224c1.7600403,3.0618286,2.0060425,6.6986084,0.3551636,10.00177
		c-13.2534485,0.3817749-23.9926453-8.6980591-29.507843-20.7293701
		c-4.0353088-10.0010986-5.5281677-20.4631348-6.1575012-31.499939
		c-0.5707397-22.4502869-1.6283569-44.5992737,1.6473694-66.5632324
		c2.3651733-17.9815674,15.0654907-32.208313,33.5056763-33.4342346c2.0389404,1.868103,1.7244568,4.7430725,1.273407,7.7514343
		c-0.5406494,1.8246765-2.8972168,3.4110107-4.865509,4.9350586c-8.8453674,5.346405-13.3934937,13.1793823-14.2562866,23.6008911
		c-2.1958923,26.9821472-1.8959351,53.9646606,0.0960083,80.9009399
		C462.2081604,546.2049561,467.9001465,555.1066284,478.7583923,559.7454224z"/>
	<circle style="fill:#FFFFFF;" cx="550.0574341" cy="471.5869141" r="12.8607445"/>
	<circle style="fill:#FFFFFF;" cx="505.8161316" cy="519.6763306" r="12.8607445"/>
</g>
</svg>
